<svg width="400" height="400" viewBox="0 0 400 400" fill="none" xmlns="http://www.w3.org/2000/svg">
  <defs>
    <linearGradient id="splitColor" x1="0" y1="0" x2="1" y2="0">
      <stop offset="50%" stop-color="#2575c2"/>
      <stop offset="50%" stop-color="#3b4751"/>
    </linearGradient>
  </defs>

  <g transform="translate(200, 200)">
    
    <path d="M-80 -60 L-140 0 L-80 60" 
          stroke="#2575c2" 
          stroke-width="24" 
          stroke-linecap="round" 
          stroke-linejoin="round"/>

    <path d="M80 -60 L140 0 L80 60" 
          stroke="#3b4751" 
          stroke-width="24" 
          stroke-linecap="round" 
          stroke-linejoin="round"/>

    <path d="M-35 0C-35 -19.3 -19.3 -35 0 -35C19.3 -35 35 -19.3 35 0C35 19.3 19.3 35 0 35C-19.3 35 -35 19.3 -35 0ZM-50 -10L-38 -10C-37.1 -13.5 -35.6 -16.8 -33.5 -19.8L-42 -28.3L-28.3 -42L-19.8 -33.5C-16.8 -35.6 -13.5 -37.1 -10 -38L-10 -50L10 -50L10 -38C13.5 -37.1 16.8 -35.6 19.8 -33.5L28.3 -42L42 -28.3L33.5 -19.8C35.6 -16.8 37.1 -13.5 38 -10L50 -10L50 10L38 10C37.1 13.5 35.6 16.8 33.5 19.8L42 28.3L28.3 42L19.8 33.5C16.8 35.6 13.5 37.1 10 38L10 50L-10 50L-10 38C-13.5 37.1 -16.8 35.6 -19.8 33.5L-28.3 42L-42 28.3L-33.5 19.8C-35.6 16.8 -37.1 13.5 -38 10L-50 10L-50 -10Z" 
          fill="url(#splitColor)"/>
          
    <circle cx="0" cy="0" r="14" fill="white"/>
  </g>
</svg>